<?xml version="1.0" standalone="no"?>
<!DOCTYPE svg PUBLIC "-//W3C//DTD SVG 20010904//EN"
 "http://www.w3.org/TR/2001/REC-SVG-20010904/DTD/svg10.dtd">
<svg version="1.0" xmlns="http://www.w3.org/2000/svg"
 width="500.000000pt" height="500.000000pt" viewBox="0 0 500.000000 500.000000"
 preserveAspectRatio="xMidYMid meet">

<g transform="translate(0.000000,500.000000) scale(0.100000,-0.100000)"
fill="#000000" stroke="none">
<path d="M2225 4914 c-210 -23 -503 -98 -665 -171 -162 -72 -390 -199 -460
-256 -16 -12 -57 -42 -91 -67 -83 -58 -371 -346 -429 -429 -25 -34 -55 -75
-67 -91 -56 -69 -183 -297 -253 -455 -66 -146 -138 -409 -167 -600 -24 -167
-24 -523 0 -690 29 -191 101 -454 167 -600 70 -158 197 -386 253 -455 12 -16
42 -57 67 -91 58 -83 346 -371 429 -429 34 -25 75 -55 91 -67 70 -57 294 -181
460 -256 242 -108 637 -187 940 -187 303 0 698 79 940 187 165 74 386 197 461
256 16 12 47 36 69 52 134 98 366 327 450 444 25 35 55 75 67 91 12 15 53 78
90 141 139 231 217 420 283 679 50 197 64 330 64 580 0 250 -14 383 -64 580
-66 259 -144 448 -283 679 -37 63 -78 126 -90 141 -12 16 -42 57 -67 91 -58
83 -346 371 -429 429 -34 25 -75 55 -91 67 -41 33 -245 154 -330 195 -135 65
-183 85 -310 126 -337 108 -683 144 -1035 106z m632 -548 c269 -54 522 -162
750 -321 132 -92 348 -306 433 -430 153 -223 257 -450 309 -675 68 -296 68
-586 0 -880 -54 -230 -154 -450 -306 -670 -39 -56 -155 -190 -224 -257 -150
-146 -298 -249 -494 -343 -155 -75 -285 -119 -465 -157 -126 -26 -150 -28
-365 -28 -210 1 -241 3 -356 27 -282 60 -505 157 -749 325 -56 38 -189 154
-252 219 -152 157 -255 305 -347 497 -74 154 -122 295 -157 467 -26 123 -28
154 -28 355 -1 192 2 235 23 340 90 457 303 823 651 1119 232 198 534 344 838
406 167 35 218 39 417 36 157 -3 213 -8 322 -30z"/>
<path d="M2270 3964 c-218 -30 -504 -150 -656 -276 -25 -21 -49 -38 -53 -38
-4 0 -47 -39 -95 -86 -242 -239 -391 -537 -434 -866 -9 -70 -13 -130 -10 -134
4 -3 55 0 113 6 l107 13 -6 31 c-3 17 -8 58 -12 91 l-7 60 39 -30 c21 -16 53
-40 70 -54 18 -14 66 -53 109 -86 42 -33 103 -81 136 -107 l59 -47 -73 -89
c-115 -143 -232 -293 -235 -303 -11 -28 -21 1 -28 72 -5 58 -11 82 -22 86 -15
6 -212 -13 -220 -22 -11 -11 65 -232 115 -334 67 -136 118 -214 214 -327 214
-252 558 -442 889 -490 134 -20 337 -20 465 0 87 13 290 67 303 81 7 7 -91
215 -101 215 -4 0 -39 -16 -78 -36 -39 -19 -73 -33 -76 -31 -5 6 145 459 157
471 10 10 480 -142 480 -155 0 -5 -34 -24 -75 -43 l-74 -36 17 -37 c10 -21 31
-66 47 -101 17 -34 34 -62 39 -62 20 0 183 149 250 229 97 117 142 186 209
321 103 209 146 401 147 648 0 415 -157 788 -455 1075 -65 63 -164 142 -169
136 -2 -2 -26 -47 -53 -99 -28 -52 -64 -121 -81 -152 l-31 -56 82 -43 82 -42
-55 -17 c-30 -10 -111 -34 -180 -55 -69 -21 -152 -47 -184 -57 -33 -10 -65
-18 -71 -18 -6 0 -33 73 -60 163 -27 89 -59 193 -72 231 -12 38 -23 76 -23 83
0 9 25 1 75 -27 42 -22 77 -40 79 -40 6 0 167 303 163 306 -2 2 -48 17 -103
34 -184 57 -439 74 -654 44z m380 -949 c189 -67 321 -204 371 -385 16 -58 16
-202 0 -258 -53 -186 -181 -319 -377 -387 -59 -21 -208 -24 -272 -6 -148 42
-287 155 -350 283 -106 216 -68 441 104 615 81 83 178 134 294 157 46 9 184
-3 230 -19z"/>
</g>
</svg>
