<?xml version="1.0" standalone="no"?>
<!DOCTYPE svg PUBLIC "-//W3C//DTD SVG 20010904//EN"
 "http://www.w3.org/TR/2001/REC-SVG-20010904/DTD/svg10.dtd">
<svg version="1.0" xmlns="http://www.w3.org/2000/svg"
 width="500.000000pt" height="500.000000pt" viewBox="0 0 500.000000 500.000000"
 preserveAspectRatio="xMidYMid meet">

<g transform="translate(0.000000,500.000000) scale(0.100000,-0.100000)"
fill="#000000" stroke="none">
<path d="M980 3866 c-222 -59 -391 -155 -551 -315 -275 -275 -400 -643 -345
-1021 40 -275 150 -496 346 -690 169 -168 332 -259 575 -322 78 -20 114 -23
275 -23 208 0 293 15 458 82 270 109 493 315 625 579 86 172 134 405 124 594
-19 321 -130 573 -352 796 -164 165 -343 267 -567 324 -111 28 -133 30 -292
30 -161 -1 -178 -3 -296 -34z m385 -226 c394 -45 696 -290 822 -670 26 -81 28
-94 28 -275 l0 -190 -34 -95 c-87 -247 -236 -428 -446 -541 -403 -218 -890
-127 -1179 220 -123 149 -197 320 -216 503 -54 528 315 985 843 1047 40 5 77
9 82 10 6 0 51 -4 100 -9z"/>
<path d="M1097 3409 c-191 -46 -364 -181 -464 -359 -37 -66 -78 -193 -88 -272
l-7 -56 43 5 c67 7 69 9 69 53 l0 41 33 -22 c17 -13 34 -26 37 -29 3 -3 33
-28 67 -54 l62 -48 -56 -72 c-31 -39 -65 -83 -76 -98 -28 -37 -35 -35 -39 10
l-3 37 -55 -3 c-30 -2 -56 -4 -57 -6 -6 -5 35 -123 58 -167 97 -192 250 -317
474 -387 98 -31 325 -20 427 19 26 11 26 11 11 47 -24 59 -33 65 -76 47 -20
-8 -37 -13 -37 -10 0 9 72 229 77 234 5 7 243 -72 243 -80 0 -4 -16 -13 -35
-20 -41 -15 -42 -20 -11 -79 l24 -45 74 75 c123 124 194 269 219 446 25 179
-36 389 -159 544 -40 50 -127 130 -142 130 -10 0 -84 -139 -78 -145 2 -1 18
-12 37 -23 24 -14 30 -23 20 -26 -98 -31 -218 -66 -227 -66 -5 0 -22 39 -37
88 -14 48 -31 100 -36 116 -12 38 -8 41 32 20 38 -19 39 -19 91 80 32 59 34
57 -69 80 -97 22 -247 20 -346 -5z m302 -477 c132 -65 186 -224 119 -355 -66
-132 -218 -183 -353 -118 -151 72 -200 264 -99 395 58 76 156 119 244 108 19
-2 59 -16 89 -30z"/>
<path d="M3339 3345 c-105 -33 -159 -125 -159 -273 0 -113 22 -177 77 -229 33
-31 59 -45 98 -54 68 -15 211 -8 250 13 87 47 128 129 128 263 1 204 -86 296
-277 294 -39 0 -91 -7 -117 -14z m149 -121 c21 -14 22 -22 22 -154 0 -152 -8
-174 -59 -168 -40 5 -51 39 -51 165 0 142 6 160 60 172 3 0 16 -6 28 -15z"/>
<path d="M2590 3295 c0 -48 2 -55 20 -55 19 0 20 -7 20 -170 0 -163 -1 -170
-20 -170 -18 0 -20 -7 -20 -55 l0 -55 145 0 145 0 0 54 c0 49 -2 55 -22 58
-21 3 -23 8 -23 63 0 54 2 60 22 63 12 2 31 -6 42 -17 18 -18 21 -33 21 -121
l0 -100 115 0 115 0 0 55 c0 42 -3 55 -15 55 -10 0 -15 10 -15 34 0 53 -19 95
-46 102 -29 8 -30 15 -3 32 47 29 64 142 32 209 -30 64 -66 73 -305 73 l-208
0 0 -55z m322 -78 c12 -19 9 -71 -5 -91 -9 -12 -23 -17 -42 -14 -28 3 -30 6
-33 52 -4 69 2 80 40 72 18 -3 36 -12 40 -19z"/>
<path d="M3770 3295 c0 -42 3 -55 15 -55 13 0 15 -26 15 -170 0 -144 -2 -170
-15 -170 -12 0 -15 -13 -15 -55 l0 -55 225 0 225 0 0 90 0 90 -70 0 -70 0 0
-35 c0 -33 -2 -35 -35 -35 l-35 0 0 170 0 170 30 0 c30 0 30 1 30 55 l0 55
-150 0 -150 0 0 -55z"/>
<path d="M4250 3296 c0 -45 3 -54 20 -59 19 -5 20 -14 20 -167 0 -153 -1 -162
-20 -167 -17 -5 -20 -14 -20 -59 l0 -54 225 0 225 0 0 90 0 90 -70 0 -70 0 0
-35 c0 -33 -2 -35 -35 -35 l-35 0 0 170 0 170 30 0 c30 0 30 1 30 55 l0 55
-150 0 -150 0 0 -54z"/>
<path d="M2580 2625 c0 -42 3 -55 15 -55 13 0 15 -26 15 -170 0 -144 -2 -170
-15 -170 -12 0 -15 -13 -15 -60 l0 -60 135 0 135 0 0 60 c0 47 -3 60 -15 60
-12 0 -15 13 -15 60 l0 60 50 0 50 0 0 -60 c0 -47 -3 -60 -15 -60 -12 0 -15
-13 -15 -60 l0 -60 135 0 135 0 0 60 c0 53 -2 60 -20 60 -19 0 -20 7 -20 166
0 157 1 166 20 171 17 5 20 14 20 59 l0 54 -135 0 -135 0 0 -55 c0 -42 3 -55
15 -55 12 0 15 -13 15 -60 l0 -60 -50 0 -50 0 0 60 c0 47 3 60 15 60 12 0 15
13 15 55 l0 55 -135 0 -135 0 0 -55z"/>
<path d="M3190 2626 c0 -45 3 -54 20 -59 19 -5 20 -14 20 -156 0 -196 15 -237
105 -284 32 -17 58 -21 130 -22 114 0 177 28 212 95 21 40 23 56 23 203 0 150
1 159 20 164 17 5 20 14 20 59 l0 54 -125 0 -125 0 0 -55 c0 -42 3 -55 15 -55
13 0 15 -24 15 -158 0 -167 -4 -182 -47 -182 -36 0 -43 30 -43 185 0 120 3
147 15 151 11 5 15 21 15 60 l0 54 -135 0 -135 0 0 -54z"/>
<path d="M3770 2626 c0 -45 3 -54 20 -59 19 -5 20 -14 20 -171 0 -159 -1 -166
-20 -166 -18 0 -20 -7 -20 -61 l0 -61 208 4 c186 3 212 5 254 25 31 14 52 32
64 55 19 37 22 105 5 137 -12 21 -57 49 -101 61 -25 7 -25 7 10 22 78 34 109
112 75 188 -14 30 -28 43 -66 59 -43 19 -68 21 -248 21 l-201 0 0 -54z m308
-72 c15 -10 22 -25 22 -49 0 -41 -22 -65 -61 -65 -29 0 -29 1 -29 58 0 32 3
62 7 65 11 12 37 8 61 -9z m10 -206 c16 -16 16 -90 0 -106 -7 -7 -27 -12 -45
-12 l-33 0 0 65 0 65 33 0 c18 0 38 -5 45 -12z"/>
</g>
</svg>
